<svg id="svg" version="1.1" xmlns="http://www.w3.org/2000/svg" style="display: block;" viewBox="0 0 850 382"><path d="M0 0 C280.5 0 561 0 850 0 C850 126.06 850 252.12 850 382 C569.5 382 289 382 0 382 C0 255.94 0 129.88 0 0 Z " transform="translate(0,0)" style="fill: #FEFEFE;"/><path d="M0 0 C3.81248426 -0.02887236 7.6249407 -0.04675492 11.4375 -0.0625 C12.52611328 -0.07087891 13.61472656 -0.07925781 14.73632812 -0.08789062 C15.77080078 -0.09111328 16.80527344 -0.09433594 17.87109375 -0.09765625 C18.82943115 -0.10289307 19.78776855 -0.10812988 20.77514648 -0.11352539 C23 0 23 0 24 1 C24.09498807 3.43400141 24.12557109 5.8393911 24.11352539 8.27368164 C24.11364593 9.04695266 24.11376646 9.82022367 24.11389065 10.61692715 C24.11314154 13.13136565 24.1055134 15.64573093 24.09765625 18.16015625 C24.09618683 19.70796676 24.09516612 21.25577776 24.09460449 22.80358887 C24.08935167 28.5565668 24.07539059 34.30953411 24.0625 40.0625 C24.041875 52.911875 24.02125 65.76125 24 79 C80.43 78.505 80.43 78.505 138 78 C138.33 60.84 138.66 43.68 139 26 C139.33 25.34 139.66 24.68 140 24 C143.64581687 23.97112488 147.29160463 23.95324415 150.9375 23.9375 C152.49887695 23.92493164 152.49887695 23.92493164 154.09179688 23.91210938 C155.57583008 23.90727539 155.57583008 23.90727539 157.08984375 23.90234375 C158.46450806 23.89448853 158.46450806 23.89448853 159.86694336 23.88647461 C162 24 162 24 163 25 C163.12290718 26.65644366 163.17783908 28.31798993 163.20532227 29.97875977 C163.22526749 31.03978409 163.24521271 32.10080841 163.26576233 33.19398499 C163.29083107 34.92520851 163.29083107 34.92520851 163.31640625 36.69140625 C163.33718735 37.86638168 163.35796844 39.04135712 163.37937927 40.25193787 C163.44500124 44.02206324 163.5038183 47.79226082 163.5625 51.5625 C163.6056732 54.11133573 163.64928708 56.66016403 163.69335938 59.20898438 C163.80069549 65.4725814 163.90192691 71.73625136 164 78 C171.26 78 178.52 78 186 78 C186.02505615 76.43000244 186.0501123 74.86000488 186.07592773 73.24243164 C186.16979984 67.4409102 186.27006908 61.63951419 186.37231445 55.83813477 C186.41574006 53.32286504 186.45740929 50.80756437 186.49731445 48.29223633 C186.55483293 44.68561456 186.61857967 41.07914969 186.68359375 37.47265625 C186.70030624 36.34038101 186.71701874 35.20810577 186.73423767 34.04151917 C186.75418289 33.00051559 186.77412811 31.95951202 186.79467773 30.88696289 C186.81022202 29.96540909 186.8257663 29.04385529 186.84178162 28.09437561 C187 26 187 26 188 25 C195.59 25 203.18 25 211 25 C211.33 42.49 211.66 59.98 212 78 C222.89 78.495 222.89 78.495 234 79 C233.99476318 77.3694165 233.98952637 75.73883301 233.98413086 74.05883789 C233.96608915 68.03377833 233.95457104 62.00872117 233.94506836 55.98364258 C233.94002623 53.37133381 233.93319275 50.75902789 233.92456055 48.14672852 C233.91248964 44.40119732 233.90677065 40.65570328 233.90234375 36.91015625 C233.89718246 35.73413345 233.89202118 34.55811066 233.88670349 33.34645081 C233.88662796 32.26540573 233.88655243 31.18436066 233.88647461 30.07055664 C233.884254 29.11347305 233.88203339 28.15638947 233.87974548 27.17030334 C234 25 234 25 235 24 C236.69558726 23.90067847 238.39525747 23.86919993 240.09375 23.8671875 C241.12371094 23.86589844 242.15367187 23.86460938 243.21484375 23.86328125 C244.84099609 23.86908203 244.84099609 23.86908203 246.5 23.875 C247.58410156 23.87113281 248.66820312 23.86726563 249.78515625 23.86328125 C250.81511719 23.86457031 251.84507812 23.86585937 252.90625 23.8671875 C254.33420898 23.86887939 254.33420898 23.86887939 255.79101562 23.87060547 C258 24 258 24 259 25 C259.09346915 26.65738443 259.11744977 28.31874644 259.11352539 29.97875977 C259.11344986 31.03978409 259.11337433 32.10080841 259.11329651 33.19398499 C259.10813522 34.348134 259.10297394 35.50228302 259.09765625 36.69140625 C259.09553383 38.4538694 259.09553383 38.4538694 259.09336853 40.25193787 C259.08774992 44.02215064 259.07519426 47.79230504 259.0625 51.5625 C259.0574874 54.11132727 259.05292408 56.66015547 259.04882812 59.20898438 C259.03862331 65.47269709 259.01905152 71.73628284 259 78 C271.87 78 284.74 78 298 78 C297.98839844 74.18566406 297.97679687 70.37132812 297.96484375 66.44140625 C297.95705458 62.7645679 297.95097702 59.08773046 297.94506836 55.41088867 C297.9400263 52.84708243 297.93319286 50.28327909 297.92456055 47.71948242 C297.91248936 44.04344979 297.90677058 40.36745502 297.90234375 36.69140625 C297.89718246 35.53725723 297.89202118 34.38310822 297.88670349 33.19398499 C297.88659019 31.6024485 297.88659019 31.6024485 297.88647461 29.97875977 C297.884254 29.03944107 297.88203339 28.10012238 297.87974548 27.13233948 C298 25 298 25 299 24 C301.88606016 23.89943309 304.74822575 23.86384625 307.63476562 23.87060547 C308.54038742 23.86885315 309.44600922 23.86710083 310.3790741 23.86529541 C313.38815193 23.86087546 316.39717152 23.86381539 319.40625 23.8671875 C321.48750825 23.8665145 323.56876643 23.86554451 325.65002441 23.86428833 C330.01815538 23.86281116 334.38626593 23.86496652 338.75439453 23.86962891 C344.36714553 23.8753262 349.97984872 23.8720473 355.59259796 23.86605644 C359.89211389 23.86245134 364.19161838 23.86358918 368.49113464 23.86618423 C370.56129461 23.86685364 372.6314556 23.8660246 374.70161438 23.86370468 C377.58951586 23.86117898 380.47733878 23.86501758 383.36523438 23.87060547 C384.22968674 23.86858124 385.0941391 23.86655701 385.98478699 23.86447144 C391.88573763 23.88573763 391.88573763 23.88573763 393 25 C393.09353163 26.68801985 393.11744791 28.37995207 393.11352539 30.07055664 C393.11344986 31.15160172 393.11337433 32.23264679 393.11329651 33.34645081 C393.10813522 34.5224736 393.10297394 35.6984964 393.09765625 36.91015625 C393.09553383 38.70591347 393.09553383 38.70591347 393.09336853 40.53794861 C393.08774979 44.37949066 393.07519411 48.22097543 393.0625 52.0625 C393.05748741 54.65950437 393.05292409 57.25650965 393.04882812 59.85351562 C393.03862313 66.23571716 393.01905136 72.6177941 393 79 C406.86 78.67 420.72 78.34 435 78 C435.06058594 72.45316406 435.12117188 66.90632813 435.18359375 61.19140625 C435.2240671 57.68684078 435.26482957 54.18228351 435.30664062 50.67773438 C435.37304297 45.10964669 435.43834816 39.54156071 435.49731445 33.97338867 C435.54489685 29.48649883 435.59723717 24.99968788 435.65294075 20.51289177 C435.67339216 18.79721975 435.69210053 17.08152607 435.70907402 15.36581612 C435.73305665 12.97109231 435.76311912 10.57651898 435.79467773 8.18188477 C435.8004332 7.46547318 435.80618866 6.74906158 435.81211853 6.01094055 C435.88594784 1.11405216 435.88594784 1.11405216 437 0 C438.62257544 -0.0991657 440.24939831 -0.13079777 441.875 -0.1328125 C442.85984375 -0.13410156 443.8446875 -0.13539062 444.859375 -0.13671875 C445.89578125 -0.13285156 446.9321875 -0.12898438 448 -0.125 C449.55460938 -0.13080078 449.55460938 -0.13080078 451.140625 -0.13671875 C452.12546875 -0.13542969 453.1103125 -0.13414063 454.125 -0.1328125 C455.03507812 -0.13168457 455.94515625 -0.13055664 456.8828125 -0.12939453 C459 0 459 0 460 1 C460.10062747 4.00813486 460.1361474 6.99335029 460.12939453 10.00195312 C460.13202301 11.41890724 460.13202301 11.41890724 460.13470459 12.86448669 C460.1391248 16.0034262 460.13618452 19.14230987 460.1328125 22.28125 C460.13348549 24.45218924 460.13445547 26.6231284 460.13571167 28.79406738 C460.13718887 33.35051183 460.13503337 37.90693672 460.13037109 42.46337891 C460.1246738 48.31826586 460.12795268 54.17310698 460.13394356 60.02799225 C460.13754857 64.51280058 460.13641086 68.99759796 460.13381577 73.48240662 C460.13314633 75.64188136 460.1339755 77.80135709 460.13629532 79.96083069 C460.13882086 82.97326308 460.13498264 85.98562013 460.12939453 88.99804688 C460.13141876 89.89990219 460.13344299 90.80175751 460.13552856 91.73094177 C460.11426231 97.88573769 460.11426231 97.88573769 459 99 C456.56640281 99.09969725 454.16114522 99.13362764 451.72698975 99.12584114 C450.95286035 99.12729458 450.17873096 99.12874802 449.38114309 99.13024551 C446.75375076 99.13393219 444.12641547 99.13040683 441.49902344 99.12698364 C439.6097142 99.12813441 437.72040519 99.12972163 435.83109665 99.13171089 C430.61335979 99.13591032 425.39564108 99.13381077 420.17790413 99.13072467 C414.56094358 99.12847327 408.94398628 99.13194888 403.32702637 99.13470459 C392.31311009 99.13916409 381.2992006 99.13818503 370.28528404 99.13529195 C361.33842284 99.13303862 352.39156355 99.13272509 343.44470215 99.13381577 C341.5386653 99.13404561 341.5386653 99.13404561 339.59412265 99.13428011 C337.01318391 99.13459982 334.43224517 99.13492403 331.85130644 99.1352527 C308.30999391 99.13802653 284.76868596 99.13514417 261.22737426 99.1299101 C239.7179871 99.12516418 218.20860586 99.1255888 196.69921875 99.13037109 C172.5563153 99.13572092 148.41341588 99.13783332 124.27051163 99.13475883 C121.6987737 99.13444026 119.12703578 99.13412589 116.55529785 99.13381577 C115.28977105 99.13366149 114.02424425 99.13350721 112.72036815 99.13334826 C103.77854378 99.13248284 94.8367215 99.13394653 85.89489746 99.13629532 C75.00600356 99.13909253 64.11711687 99.13835673 53.2282238 99.13301457 C47.66670713 99.13037649 42.10520251 99.1293743 36.54368591 99.13266373 C31.46117013 99.1356245 26.37867767 99.13403756 21.29616404 99.12868617 C19.44894767 99.12756105 17.60172936 99.12815526 15.75451422 99.13056196 C13.26065079 99.1335641 10.76686926 99.1305234 8.27301025 99.12584114 C7.17519423 99.12935289 7.17519423 99.12935289 6.0552001 99.13293558 C1.11415034 99.11415034 1.11415034 99.11415034 0 98 C-0.09530981 94.95597578 -0.12551639 91.93468292 -0.11352539 88.89038086 C-0.11367142 87.93438492 -0.11381744 86.97838898 -0.1139679 85.99342346 C-0.11326835 82.81720755 -0.10547403 79.64104948 -0.09765625 76.46484375 C-0.09579222 74.26908907 -0.09436825 72.07333398 -0.09336853 69.87757874 C-0.08954219 64.08579367 -0.07971091 58.2940335 -0.06866455 52.5022583 C-0.05845293 46.59721209 -0.05387145 40.69216187 -0.04882812 34.78710938 C-0.03808875 23.19139528 -0.02101093 11.59569971 0 0 Z " transform="translate(268,62)" style="fill: #1B3040;"/><path d="M0 0 C3.81248426 -0.02887236 7.6249407 -0.04675492 11.4375 -0.0625 C12.52611328 -0.07087891 13.61472656 -0.07925781 14.73632812 -0.08789062 C15.77080078 -0.09111328 16.80527344 -0.09433594 17.87109375 -0.09765625 C18.82943115 -0.10289307 19.78776855 -0.10812988 20.77514648 -0.11352539 C23 0 23 0 24 1 C24.12290718 2.65644366 24.17783908 4.31798993 24.20532227 5.97875977 C24.22550415 7.05468384 24.24568604 8.13060791 24.26647949 9.23913574 C24.28295532 10.37838501 24.29943115 11.51763428 24.31640625 12.69140625 C24.33505737 13.73228394 24.3537085 14.77316162 24.3729248 15.84558105 C24.44146313 19.75113054 24.5014578 23.65682616 24.5625 27.5625 C24.706875 36.286875 24.85125 45.01125 25 54 C55.03 54.33 85.06 54.66 116 55 C116 52.36 116 49.72 116 47 C115.04222656 47.02094727 114.08445313 47.04189453 113.09765625 47.06347656 C109.51203624 47.13639479 105.92648047 47.18198558 102.34033203 47.21972656 C100.79432113 47.23972503 99.24838473 47.26693331 97.70263672 47.30175781 C81.68904747 47.65325041 81.68904747 47.65325041 75 43 C69.60918743 36.53102492 69.43875296 27.4003646 69.55078125 19.3515625 C70.40655144 12.96677273 74.03961895 9.77367809 78.625 5.625 C86.59339264 0.17294188 95.56890002 0.81832262 104.9375 0.8125 C105.97068359 0.80025391 107.00386719 0.78800781 108.06835938 0.77539062 C117.0192046 0.75838459 124.67013672 0.86997016 131.4375 7.3125 C132.26121094 8.07175781 133.08492187 8.83101562 133.93359375 9.61328125 C136.83406457 12.96335246 138 15.57068034 138 20 C138.66 20 139.32 20 140 20 C141.857309 26.3087641 142.29396343 31.99758343 142.265625 38.5546875 C142.26753845 39.53744659 142.2694519 40.52020569 142.27142334 41.53274536 C142.27277691 43.59507506 142.2691387 45.65741351 142.26074219 47.71972656 C142.24996167 50.88625941 142.26070089 54.05223382 142.2734375 57.21875 C142.27211711 59.22656375 142.26955722 61.23437716 142.265625 63.2421875 C142.26967346 64.19108856 142.27372192 65.13998962 142.27789307 66.11764526 C142.26843658 67.43008713 142.26843658 67.43008713 142.25878906 68.76904297 C142.25719788 69.53989227 142.25560669 70.31074158 142.25396729 71.10494995 C142 73 142 73 140 75 C137.94228935 75.24609566 137.94228935 75.24609566 135.35568237 75.24050903 C134.37689117 75.24325836 133.39809998 75.24600769 132.38964844 75.24884033 C131.31215332 75.24164978 130.2346582 75.23445923 129.12451172 75.22705078 C127.99280548 75.22734283 126.86109924 75.22763489 125.69509888 75.22793579 C121.9398848 75.22653812 118.18486708 75.21095626 114.4296875 75.1953125 C111.83179838 75.19158393 109.23390787 75.18873622 106.63601685 75.18673706 C100.4878341 75.17987089 94.33973287 75.16409462 88.19158089 75.14403808 C81.19288685 75.12170136 74.19418946 75.11069127 67.19546866 75.10064721 C52.79694098 75.07972897 38.39847301 75.04453909 24 75 C24.00902344 76.0828125 24.01804688 77.165625 24.02734375 78.28125 C23.99016063 83.33815425 23.79045446 87.10580676 20.1796875 90.92578125 C9.1415752 100.21394892 -4.74520278 98.67440451 -18.375 97.5625 C-22.69776119 97.1511194 -22.69776119 97.1511194 -25 96 C-25.19361753 90.48190035 -24.81170643 86.22197736 -23 81 C-20.7065916 78.7065916 -13.91178645 79.75122362 -10.61328125 79.74609375 C-9.81535156 79.72160156 -9.01742187 79.69710937 -8.1953125 79.671875 C-7.46328613 79.6625293 -6.73125977 79.65318359 -5.97705078 79.64355469 C-3.7954052 79.13961931 -3.7954052 79.13961931 -2.40345764 76.91981506 C-0.6615891 73.29595507 -0.60184343 70.6564188 -0.56762695 66.6394043 C-0.5574353 65.91690994 -0.54724365 65.19441559 -0.53674316 64.45002747 C-0.50667805 62.07467835 -0.49735746 59.69973293 -0.48828125 57.32421875 C-0.4714297 55.67225308 -0.45327881 54.02030019 -0.43388367 52.36836243 C-0.38642904 48.02997839 -0.35659045 43.69164619 -0.33044434 39.35308838 C-0.30061584 34.92213707 -0.25409339 30.49136431 -0.20898438 26.06054688 C-0.1230029 17.37378573 -0.05563483 8.68700825 0 0 Z " transform="translate(119,86)" style="fill: #1F3543;"/><path d="M0 0 C0.98484375 -0.00128906 1.9696875 -0.00257812 2.984375 -0.00390625 C4.02078125 -0.00003906 5.0571875 0.00382812 6.125 0.0078125 C7.67960938 0.00201172 7.67960938 0.00201172 9.265625 -0.00390625 C10.25046875 -0.00261719 11.2353125 -0.00132813 12.25 0 C13.16007812 0.00112793 14.07015625 0.00225586 15.0078125 0.00341797 C17.125 0.1328125 17.125 0.1328125 18.125 1.1328125 C18.22562747 4.14094736 18.2611474 7.12616279 18.25439453 10.13476562 C18.25702301 11.55171974 18.25702301 11.55171974 18.25970459 12.99729919 C18.2641248 16.1362387 18.26118452 19.27512237 18.2578125 22.4140625 C18.25848549 24.58500174 18.25945547 26.7559409 18.26071167 28.92687988 C18.26218887 33.48332433 18.26003337 38.03974922 18.25537109 42.59619141 C18.2496738 48.45107836 18.25295268 54.30591948 18.25894356 60.16080475 C18.26254857 64.64561308 18.26141086 69.13041046 18.25881577 73.61521912 C18.25814633 75.77469386 18.2589755 77.93416959 18.26129532 80.09364319 C18.26382086 83.10607558 18.25998264 86.11843263 18.25439453 89.13085938 C18.25641876 90.03271469 18.25844299 90.93457001 18.26052856 91.86375427 C18.23926231 98.01855019 18.23926231 98.01855019 17.125 99.1328125 C14.69044666 99.23159622 12.28426654 99.2645974 9.84919643 99.25586033 C9.07476744 99.25701417 8.30033845 99.25816802 7.50244191 99.25935683 C4.87403847 99.26203073 2.24569472 99.25749502 -0.38270569 99.25306702 C-2.27272746 99.25350256 -4.16274917 99.25437716 -6.05277056 99.25565618 C-11.27243964 99.25790445 -16.49208842 99.25387536 -21.71175492 99.24887812 C-27.33074007 99.24457853 -32.94972399 99.24601969 -38.56871033 99.2467804 C-48.31263058 99.24730594 -58.05654415 99.24415593 -67.80046272 99.23854256 C-81.88871027 99.23043172 -95.97695457 99.22781277 -110.0652042 99.22655457 C-132.91985508 99.22436339 -155.77450163 99.21771009 -178.62915039 99.20825195 C-200.83650697 99.19907228 -223.0438626 99.19198634 -245.2512207 99.18774414 C-245.93536678 99.18761261 -246.61951287 99.18748109 -247.32439065 99.18734558 C-254.19466819 99.18602709 -261.06494573 99.18475127 -267.93522328 99.18350672 C-325.58181798 99.17305999 -383.22840885 99.15540856 -440.875 99.1328125 C-440.875 98.8028125 -440.875 98.4728125 -440.875 98.1328125 C-342.205 98.1328125 -243.535 98.1328125 -141.875 98.1328125 C-141.875 97.4728125 -141.875 96.8128125 -141.875 96.1328125 C-141.14796875 95.85953125 -140.4209375 95.58625 -139.671875 95.3046875 C-136.98286142 94.17800583 -134.61369114 92.89554633 -132.125 91.3828125 C-131.25875 90.85816406 -130.3925 90.33351563 -129.5 89.79296875 C-126.98689053 88.2035766 -124.55941516 86.52687042 -122.125 84.8203125 C-118.73280875 82.51265842 -116.06056988 81.34745711 -111.875 81.1328125 C-111.875 80.4728125 -111.875 79.8128125 -111.875 79.1328125 C-114.515 79.1328125 -117.155 79.1328125 -119.875 79.1328125 C-119.875 67.5828125 -119.875 56.0328125 -119.875 44.1328125 C-104.035 44.1328125 -88.195 44.1328125 -71.875 44.1328125 C-71.545 47.7628125 -71.215 51.3928125 -70.875 55.1328125 C-64.54654664 52.99695949 -59.00242318 50.93430508 -53.53125 47.0859375 C-51.875 46.1328125 -51.875 46.1328125 -48.875 46.1328125 C-48.875 57.0228125 -48.875 67.9128125 -48.875 79.1328125 C-35.015 78.8028125 -21.155 78.4728125 -6.875 78.1328125 C-6.81441406 72.58597656 -6.75382812 67.03914063 -6.69140625 61.32421875 C-6.6509329 57.81965328 -6.61017043 54.31509601 -6.56835938 50.81054688 C-6.50195703 45.24245919 -6.43665184 39.67437321 -6.37768555 34.10620117 C-6.33010315 29.61931133 -6.27776283 25.13250038 -6.22205925 20.64570427 C-6.20160784 18.93003225 -6.18289947 17.21433857 -6.16592598 15.49862862 C-6.14194335 13.10390481 -6.11188088 10.70933148 -6.08032227 8.31469727 C-6.0745668 7.59828568 -6.06881134 6.88187408 -6.06288147 6.14375305 C-5.97602645 0.38290594 -5.68621254 0.00704736 0 0 Z " transform="translate(709.875,61.8671875)" style="fill: #41A7B6;"/><path d="M0 0 C7.26 0 14.52 0 22 0 C22 3.3 22 6.6 22 10 C32.89 10 43.78 10 55 10 C56.46858473 12.93716946 56.12734295 15.54147244 56.12939453 18.82055664 C56.13202301 19.8719709 56.13202301 19.8719709 56.13470459 20.94462585 C56.13911366 23.26649434 56.13618875 25.58828696 56.1328125 27.91015625 C56.13348573 29.5191601 56.13445592 31.12816386 56.13571167 32.73716736 C56.1371873 36.11067675 56.13503812 39.48415969 56.13037109 42.85766602 C56.12466931 47.19132876 56.1279565 51.52492964 56.13394356 55.85859013 C56.13754891 59.18102997 56.13641079 62.50345503 56.13381577 65.82589531 C56.13314666 67.42436162 56.13397435 69.02282926 56.13629532 70.62129402 C56.13882191 72.85051175 56.1349814 75.07962778 56.12939453 77.30883789 C56.12859894 78.57965714 56.12780334 79.85047638 56.12698364 81.1598053 C56 84 56 84 55 85 C52.07805335 85.09525367 49.17979671 85.12552736 46.25756836 85.11352539 C44.88209587 85.11374443 44.88209587 85.11374443 43.47883606 85.1139679 C40.43248164 85.1132684 37.38618755 85.10547428 34.33984375 85.09765625 C32.23377007 85.0957922 30.12769597 85.09436824 28.0216217 85.09336853 C22.46657117 85.08954231 16.91154659 85.07971114 11.35650635 85.06866455 C5.6927526 85.05845267 0.02899467 85.05387139 -5.63476562 85.04882812 C-16.75652185 85.03808896 -27.87825877 85.0210113 -39 85 C-39.04627819 75.51653985 -39.08184612 66.03311839 -39.10362434 56.54957008 C-39.11407518 52.14628749 -39.12825796 47.74308198 -39.15087891 43.33984375 C-39.17256112 39.09290176 -39.18455883 34.84603404 -39.18975449 30.59904099 C-39.19345858 28.97626958 -39.20069146 27.35350238 -39.21146011 25.73076248 C-39.2259138 23.46315883 -39.22798054 21.19586472 -39.22705078 18.92822266 C-39.231492 17.63582672 -39.23593323 16.34343079 -39.24050903 15.01187134 C-39 12 -39 12 -37 10 C-34.20315203 9.82474945 -31.5067192 9.76856811 -28.7109375 9.8046875 C-27.48330185 9.80893234 -27.48330185 9.80893234 -26.23086548 9.81326294 C-23.61209607 9.82447468 -20.99366636 9.84958071 -18.375 9.875 C-16.60156743 9.88502853 -14.82812951 9.8941546 -13.0546875 9.90234375 C-8.70299374 9.92441722 -4.3515545 9.95895356 0 10 C0 6.7 0 3.4 0 0 Z " transform="translate(362,210)" style="fill: #3AA3B2;"/><path d="M0 0 C0.81181229 -0.00419449 1.62362457 -0.00838898 2.46003723 -0.01271057 C3.34175598 -0.00709106 4.22347473 -0.00147156 5.13191223 0.00431824 C6.06723282 0.00241989 7.00255341 0.00052155 7.96621704 -0.00143433 C11.05644624 -0.00513793 14.14644027 0.00555428 17.23664856 0.01676941 C19.38087944 0.01796131 21.52511085 0.01841435 23.66934204 0.01815796 C28.16080498 0.01972198 32.65218811 0.02800716 37.14363098 0.04142761 C42.91436242 0.05844801 48.6850064 0.06224104 54.45576 0.06148243 C58.88137657 0.06175366 63.30697383 0.06722678 67.732584 0.07448387 C69.86135525 0.07767582 71.99012869 0.07963917 74.11890221 0.08037758 C77.08551681 0.08253385 80.05203658 0.09126163 83.01863098 0.10197449 C83.90642242 0.1015213 84.79421387 0.10106812 85.70890808 0.1006012 C91.76670356 0.13276191 91.76670356 0.13276191 92.88117981 1.24723816 C92.98081901 3.48111022 93.00917776 5.71817675 93.01057434 7.95426941 C93.01320282 9.00546463 93.01320282 9.00546463 93.0158844 10.07789612 C93.02030247 12.40520165 93.0173651 14.7324318 93.01399231 17.05973816 C93.01466536 18.67017125 93.0156354 20.28060424 93.01689148 21.89103699 C93.01836839 25.27052271 93.01621412 28.64998206 93.0115509 32.02946472 C93.00585361 36.37100321 93.00913265 40.71247989 93.01512337 45.05401611 C93.01872916 48.38074717 93.01759031 51.70746346 93.01499557 55.03419495 C93.01432636 56.63545234 93.01515455 58.23671106 93.01747513 59.83796692 C93.02000196 62.07208327 93.01616066 64.30609816 93.01057434 66.54020691 C93.00977875 67.81404236 93.00898315 69.08787781 93.00816345 70.40031433 C92.88117981 73.24723816 92.88117981 73.24723816 91.88117981 74.24723816 C90.18559255 74.34655969 88.48592234 74.37803823 86.78742981 74.38005066 C85.75746887 74.38133972 84.72750793 74.38262878 83.66633606 74.38395691 C82.04018372 74.37815613 82.04018372 74.37815613 80.38117981 74.37223816 C79.29707825 74.37610535 78.21297668 74.37997253 77.09602356 74.38395691 C75.55108215 74.38202332 75.55108215 74.38202332 73.97492981 74.38005066 C73.02295715 74.37892273 72.0709845 74.3777948 71.09016418 74.37663269 C68.88117981 74.24723816 68.88117981 74.24723816 67.88117981 73.24723816 C67.75818815 71.56014469 67.70332723 69.86802913 67.67585754 68.17668152 C67.64593971 66.55511391 67.64593971 66.55511391 67.61541748 64.90078735 C67.59870499 63.72476456 67.58199249 62.54874176 67.56477356 61.33708191 C67.54399246 60.13991043 67.52321136 58.94273895 67.50180054 57.70928955 C67.43617702 53.86783329 67.37736078 50.02630615 67.31867981 46.18473816 C67.27550676 43.58772549 67.23189288 40.9907201 67.18782043 38.39372253 C67.08048261 32.01163456 66.97925163 25.62947498 66.88117981 19.24723816 C62.59117981 19.57723816 58.30117981 19.90723816 53.88117981 20.24723816 C53.84359558 22.64767395 53.84359558 22.64767395 53.80525208 25.09660339 C53.71138155 31.00993958 53.61111193 36.92315268 53.50886536 42.83634949 C53.46543915 45.40012237 53.42376996 47.96392562 53.38386536 50.52775574 C53.32634834 54.20387444 53.26260118 57.87983915 53.19758606 61.55583191 C53.18087357 62.70998093 53.16416107 63.86412994 53.14694214 65.05325317 C53.12699692 66.1142775 53.1070517 67.17530182 53.08650208 68.26847839 C53.07095779 69.20779709 53.05541351 70.14711578 53.03939819 71.11489868 C52.88117981 73.24723816 52.88117981 73.24723816 51.88117981 74.24723816 C50.18559255 74.34655969 48.48592234 74.37803823 46.78742981 74.38005066 C45.75746887 74.38133972 44.72750793 74.38262878 43.66633606 74.38395691 C42.04018372 74.37815613 42.04018372 74.37815613 40.38117981 74.37223816 C39.29707825 74.37610535 38.21297668 74.37997253 37.09602356 74.38395691 C36.06606262 74.38266785 35.03610168 74.38137878 33.97492981 74.38005066 C33.02295715 74.37892273 32.0709845 74.3777948 31.09016418 74.37663269 C28.88117981 74.24723816 28.88117981 74.24723816 27.88117981 73.24723816 C27.78764818 71.55921831 27.7637319 69.86728608 27.76765442 68.17668152 C27.76772995 67.09563644 27.76780548 66.01459137 27.7678833 64.90078735 C27.77304459 63.72476456 27.77820587 62.54874176 27.78352356 61.33708191 C27.78493851 60.13991043 27.78635345 58.94273895 27.78781128 57.70928955 C27.79343002 53.8677475 27.8059857 50.02626273 27.81867981 46.18473816 C27.8236924 43.58773379 27.82825572 40.99072851 27.83235168 38.39372253 C27.84340554 32.01153884 27.86068273 25.62939823 27.88117981 19.24723816 C22.27117981 19.24723816 16.66117981 19.24723816 10.88117981 19.24723816 C10.89165344 20.84229187 10.90212708 22.43734558 10.91291809 24.08073425 C10.94903271 29.98093942 10.97204913 35.88113475 10.99104309 41.78141785 C11.00112019 44.33840069 11.01478206 46.89537195 11.03205872 49.45231628 C11.05623198 53.12096508 11.06764566 56.78946195 11.07649231 60.45817566 C11.08681488 61.60716339 11.09713745 62.75615112 11.10777283 63.93995667 C11.10792389 65.00090546 11.10807495 66.06185425 11.10823059 67.154953 C11.11267181 68.09205109 11.11711304 69.02914917 11.12168884 69.99464417 C10.88117981 72.24723816 10.88117981 72.24723816 8.88117981 74.24723816 C6.74226379 74.49015808 6.74226379 74.49015808 4.12727356 74.47770691 C2.7225177 74.47480652 2.7225177 74.47480652 1.28938293 74.47184753 C0.3090509 74.45960144 -0.67128113 74.44735535 -1.68132019 74.43473816 C-2.66551941 74.43409363 -3.64971863 74.4334491 -4.66374207 74.43278503 C-11.97864487 74.38741348 -11.97864487 74.38741348 -13.11882019 73.24723816 C-13.23912626 71.29073178 -13.28905579 69.32986777 -13.31169128 67.36979675 C-13.32775421 66.111138 -13.34381714 64.85247925 -13.36036682 63.55567932 C-13.37185711 62.16901829 -13.38246517 60.78234972 -13.39225769 59.39567566 C-13.39758137 58.6992458 -13.40290504 58.00281593 -13.40839005 57.28528214 C-13.43515171 53.59438934 -13.45451106 49.90353061 -13.46891785 46.21257019 C-13.48551354 42.40932415 -13.53023781 38.60695355 -13.58128929 34.80403709 C-13.61505418 31.87337828 -13.62650562 28.94292406 -13.63214493 26.01208878 C-13.63883921 24.61109912 -13.65401398 23.21012205 -13.67803574 21.80932236 C-13.877182 9.48650988 -13.877182 9.48650988 -10.83610535 4.95671082 C-7.36459556 1.49518201 -4.90921264 -0.0038045 0 0 Z " transform="translate(226.1188201904297,220.7527618408203)" style="fill: #1E3342;"/><path d="M0 0 C1.34362885 0.00031689 2.68728332 0.01162897 4.03076172 0.03173828 C4.73820526 0.03456818 5.4456488 0.03739807 6.17453003 0.04031372 C8.43667432 0.05151941 10.69842437 0.07662399 12.96044922 0.10205078 C14.49299559 0.11208011 16.02554816 0.12120604 17.55810547 0.12939453 C21.31737223 0.15145992 25.07634386 0.18599183 28.83544922 0.22705078 C32.40146624 8.48088306 34.87740796 16.39262947 36.21044922 25.29345703 C36.7392278 27.77541151 37.40570623 30.01364545 38.22607422 32.40673828 C39.96047661 37.46978643 41.27833082 42.60253009 42.58544922 47.78955078 C44.77255278 56.30620044 47.07749757 64.78084706 49.52294922 73.22705078 C49.8081543 74.22293213 50.09335938 75.21881348 50.38720703 76.24487305 C52.11498887 82.15722125 54.07664382 87.70943998 56.83544922 93.22705078 C56.17544922 95.20705078 55.51544922 97.18705078 54.83544922 99.22705078 C47.57544922 99.22705078 40.31544922 99.22705078 32.83544922 99.22705078 C30.39763478 91.91360746 28.08546788 84.59780158 25.83544922 77.22705078 C16.92544922 76.89705078 8.01544922 76.56705078 -1.16455078 76.22705078 C-1.49455078 78.86705078 -1.82455078 81.50705078 -2.16455078 84.22705078 C-2.7781696 86.71987724 -3.44317846 89.20074605 -4.16455078 91.66455078 C-4.51517578 92.88013672 -4.86580078 94.09572266 -5.22705078 95.34814453 C-6.16455078 98.22705078 -6.16455078 98.22705078 -7.16455078 99.22705078 C-8.87227436 99.3141891 -10.58353727 99.33405086 -12.29345703 99.32470703 C-13.84516602 99.31987305 -13.84516602 99.31987305 -15.42822266 99.31494141 C-16.51683594 99.3065625 -17.60544922 99.29818359 -18.72705078 99.28955078 C-20.36577148 99.2827832 -20.36577148 99.2827832 -22.03759766 99.27587891 C-24.74663573 99.26404905 -27.45556677 99.24756621 -30.16455078 99.22705078 C-29.59199486 91.89833498 -27.92768072 85.26487685 -25.85205078 78.22705078 C-23.77252886 71.00793596 -21.74182672 63.80949866 -20.10205078 56.47705078 C-18.3113115 48.54553602 -16.09157526 40.76223675 -13.81689453 32.95751953 C-12.60260001 28.7829679 -11.43717955 24.59726531 -10.29345703 20.40283203 C-9.98061768 19.26136719 -9.66777832 18.11990234 -9.34545898 16.94384766 C-8.73342265 14.70565342 -8.12634088 12.4660974 -7.5246582 10.22509766 C-7.245979 9.21125 -6.9672998 8.19740234 -6.68017578 7.15283203 C-6.43557617 6.24960205 -6.19097656 5.34637207 -5.93896484 4.41577148 C-4.68101763 0.86044463 -3.77452738 0.2708155 0 0 Z " transform="translate(124.16455078125,195.77294921875)" style="fill: #1F3543;"/><path d="M0 0 C2.41333775 0.01078696 4.82594157 0.0000115 7.23925781 -0.01269531 C8.79915526 -0.01137455 10.35905226 -0.00881389 11.91894531 -0.00488281 C12.62746643 -0.00893127 13.33598755 -0.01297974 14.065979 -0.01715088 C19.04232126 0.02888959 23.36169054 0.90877492 28.15332031 2.26074219 C28.15332031 2.92074219 28.15332031 3.58074219 28.15332031 4.26074219 C28.73082031 4.34324219 29.30832031 4.42574219 29.90332031 4.51074219 C33.00022668 5.54304431 34.13957749 6.66236435 36.15332031 9.26074219 C39.58150666 16.44964264 39.54907205 23.56681018 39.44628906 31.38964844 C39.44204422 32.61989243 39.43779938 33.85013641 39.4334259 35.11766052 C39.41672798 39.01975035 39.37909107 42.9213103 39.34082031 46.82324219 C39.32405834 49.48013567 39.31207571 52.13702417 39.29980469 54.79394531 C39.26685338 61.28307957 39.21513163 67.77182125 39.15332031 74.26074219 C32.88332031 74.26074219 26.61332031 74.26074219 20.15332031 74.26074219 C18.15332031 69.26074219 18.15332031 69.26074219 18.15332031 66.26074219 C17.49332031 66.26074219 16.83332031 66.26074219 16.15332031 66.26074219 C15.65832031 67.74574219 15.65832031 67.74574219 15.15332031 69.26074219 C13.19238281 70.83105469 13.19238281 70.83105469 10.77832031 72.38574219 C9.98683594 72.90394531 9.19535156 73.42214844 8.37988281 73.95605469 C1.77435692 77.82666109 -7.4868106 76.98171012 -14.84667969 75.76464844 C-20.93463446 74.1220143 -25.70239253 71.7854142 -29.09667969 66.20605469 C-32.93248229 58.08161168 -33.43247654 48.2851376 -30.72167969 39.69824219 C-27.63323761 34.03609837 -23.51758916 31.05412112 -17.48413086 28.86499023 C-11.56949888 27.50993015 -5.38301625 27.96053933 0.65332031 28.07324219 C2.06216018 28.08831606 3.47101564 28.10199969 4.87988281 28.11425781 C8.30476427 28.14944495 11.72883794 28.1986814 15.15332031 28.26074219 C14.38301909 24.77265028 14.38301909 24.77265028 13.15332031 21.26074219 C9.39483857 20.00791494 5.89841112 20.13692383 1.98535156 20.16308594 C1.19053879 20.16450089 0.39572601 20.16591583 -0.423172 20.16737366 C-2.96021294 20.17296841 -5.49716544 20.18551991 -8.03417969 20.19824219 C-9.75488154 20.20325787 -11.47558477 20.20782066 -13.19628906 20.21191406 C-17.41311998 20.22293612 -21.62988484 20.24019713 -25.84667969 20.26074219 C-26.18628159 18.38686742 -26.5180666 16.51157522 -26.84667969 14.63574219 C-27.12511719 13.06953125 -27.12511719 13.06953125 -27.40917969 11.47167969 C-27.83383765 8.35499354 -27.92213174 5.40143407 -27.84667969 2.26074219 C-18.52806577 0.24652677 -9.48278001 -0.05046097 0 0 Z " transform="translate(525.8466796875,219.7392578125)" style="fill: #1F3543;"/><path d="M0 0 C1.25876953 -0.00708984 2.51753906 -0.01417969 3.81445312 -0.02148438 C13.2788497 0.04269776 23.24560581 0.80124713 30.5625 7.4375 C35.1051626 14.94276865 37.49067315 21.63892715 36.5625 30.4375 C35.04808319 35.49078718 32.92083286 40.28981516 28.5625 43.4375 C20.97189156 47.24215226 13.34682919 46.77967454 5.0625 46.625 C3.65366014 46.60992613 2.24480468 46.5962425 0.8359375 46.58398438 C-2.58894396 46.54879724 -6.01301763 46.49956079 -9.4375 46.4375 C-9.045625 47.55125 -8.65375 48.665 -8.25 49.8125 C-8.02957031 50.43898438 -7.80914063 51.06546875 -7.58203125 51.7109375 C-5.88878781 54.26525013 -4.38040954 54.63527358 -1.4375 55.4375 C1.24260949 55.60246802 3.8124358 55.67128795 6.48828125 55.6328125 C7.23587204 55.6299826 7.98346283 55.62715271 8.75370789 55.62423706 C11.1276388 55.61309469 13.50118425 55.58800162 15.875 55.5625 C17.4902289 55.55246249 19.10546376 55.54333799 20.72070312 55.53515625 C24.66823461 55.51488131 28.61493882 55.47572275 32.5625 55.4375 C33.5525 63.3575 33.5525 63.3575 34.5625 71.4375 C23.5315026 76.16507032 13.37233458 76.67086943 1.5 76.875 C0.41227295 76.90940186 -0.6754541 76.94380371 -1.79614258 76.97924805 C-10.50749305 77.02455469 -18.88552132 75.32863556 -25.67749023 69.52270508 C-36.06210146 58.69441786 -35.90362087 45.22584977 -35.70703125 31.109375 C-35.37061116 20.986942 -32.62829745 13.95300547 -25.92578125 6.375 C-17.84115644 0.07990752 -9.99949882 -0.15823607 0 0 Z " transform="translate(665.4375,219.5625)" style="fill: #1E3442;"/><path d="M0 0 C1.05313385 0.00328812 2.1062677 0.00657623 3.1913147 0.00996399 C5.40511303 0.02034704 7.61888497 0.04023232 9.83251953 0.0690918 C13.23615323 0.11340612 16.63908145 0.13056671 20.04296875 0.14257812 C22.19532278 0.1559927 24.34766808 0.17091304 26.5 0.1875 C27.52282074 0.19488693 28.54564148 0.20227386 29.59945679 0.20988464 C31.00694687 0.2291375 31.00694687 0.2291375 32.44287109 0.2487793 C33.27225189 0.2586235 34.10163269 0.26846771 34.95614624 0.27861023 C36.8515625 0.42578125 36.8515625 0.42578125 37.8515625 1.42578125 C37.95143225 4.26913173 37.99034131 7.08275288 37.9765625 9.92578125 C37.98236328 11.12267578 37.98236328 11.12267578 37.98828125 12.34375 C37.97817017 18.29917358 37.97817017 18.29917358 36.8515625 19.42578125 C34.26003143 19.58574291 31.6920423 19.68516822 29.09765625 19.7421875 C28.32220963 19.7629686 27.546763 19.78374969 26.74781799 19.80516052 C24.26165942 19.87073927 21.77539205 19.92957924 19.2890625 19.98828125 C17.60741046 20.03145858 15.92576956 20.07507261 14.24414062 20.11914062 C10.11339379 20.22642904 5.98253714 20.32767257 1.8515625 20.42578125 C1.8088415 22.0919003 1.81092418 23.7596101 1.8515625 25.42578125 C2.90316761 26.70219322 2.90316761 26.70219322 5.28491211 26.53588867 C6.34718018 26.53435791 7.40944824 26.53282715 8.50390625 26.53125 C9.67373047 26.54607422 10.84355469 26.56089844 12.04882812 26.57617188 C14.50704599 26.6005615 16.96553222 26.60632737 19.42382812 26.59179688 C27.61990909 26.73935316 33.5548834 27.95094393 39.8515625 33.42578125 C44.2499238 38.23927367 44.46985085 43.65807138 44.3515625 49.86328125 C44.37476563 51.07467773 44.37476563 51.07467773 44.3984375 52.31054688 C44.35420049 59.17281248 42.84719815 64.25788781 38.07287598 69.30674744 C31.67807294 74.8252404 26.68289628 75.39036307 18.4140625 75.14453125 C16.67213623 75.13323181 16.67213623 75.13323181 14.89501953 75.1217041 C11.21262006 75.08934362 7.53315793 75.00766941 3.8515625 74.92578125 C1.3476874 74.89922353 -1.15622248 74.87575411 -3.66015625 74.85546875 C-8.21136735 74.80524785 -12.76207081 74.7496837 -17.3125 74.65039062 C-18.22467285 74.6314978 -19.1368457 74.61260498 -20.07666016 74.59313965 C-22.1484375 74.42578125 -22.1484375 74.42578125 -23.1484375 73.42578125 C-23.2468096 72.095345 -23.27922342 70.75984781 -23.28125 69.42578125 C-23.28253906 68.62140625 -23.28382813 67.81703125 -23.28515625 66.98828125 C-23.28128906 66.14265625 -23.27742188 65.29703125 -23.2734375 64.42578125 C-23.27730469 63.58015625 -23.28117187 62.73453125 -23.28515625 61.86328125 C-23.28386719 61.05890625 -23.28257812 60.25453125 -23.28125 59.42578125 C-23.28012207 58.68328125 -23.27899414 57.94078125 -23.27783203 57.17578125 C-23.1484375 55.42578125 -23.1484375 55.42578125 -22.1484375 54.42578125 C-19.19138429 54.33709826 -16.25778694 54.31057829 -13.30078125 54.328125 C-11.97114098 54.33024742 -11.97114098 54.33024742 -10.61463928 54.33241272 C-7.77170496 54.3380291 -4.92884819 54.35058434 -2.0859375 54.36328125 C-0.16341259 54.36829414 1.75911354 54.37285741 3.68164062 54.37695312 C8.40497799 54.38800384 13.12825708 54.40527942 17.8515625 54.42578125 C18.1815625 51.78578125 18.5115625 49.14578125 18.8515625 46.42578125 C18.02019775 46.45196533 17.18883301 46.47814941 16.33227539 46.50512695 C13.20685391 46.59104396 10.08204004 46.65336336 6.95581055 46.70043945 C4.95385449 46.73754374 2.95244508 46.80112262 0.95117188 46.86523438 C-6.88756479 46.96395902 -12.93631392 46.54774246 -19.1484375 41.42578125 C-25.3745349 34.47492976 -24.50385793 26.16547838 -24.1484375 17.42578125 C-23.5188534 12.14205643 -22.02082439 8.19350903 -18.1484375 4.42578125 C-12.1052117 0.09181635 -7.31358134 -0.12669431 0 0 Z " transform="translate(446.1484375,220.57421875)" style="fill: #1F3543;"/><path d="M0 0 C1.68996094 0.00290039 1.68996094 0.00290039 3.4140625 0.00585938 C5.15816406 0.02422852 5.15816406 0.02422852 6.9375 0.04296875 C8.68160156 0.04393555 8.68160156 0.04393555 10.4609375 0.04492188 C15.75279344 0.07216827 20.72298096 0.25663206 25.9375 1.23046875 C25.79730308 4.0433558 25.65062045 6.8556376 25.5 9.66796875 C25.46068359 10.47041016 25.42136719 11.27285156 25.38085938 12.09960938 C25.05078125 18.1171875 25.05078125 18.1171875 23.9375 19.23046875 C20.14121287 19.43424559 16.35141927 19.57740519 12.55078125 19.66015625 C11.35388672 19.7065625 11.35388672 19.7065625 10.1328125 19.75390625 C9.03477295 19.78363525 9.03477295 19.78363525 7.91455078 19.81396484 C5.4836927 20.13812295 5.4836927 20.13812295 2.9375 23.23046875 C2.6075 26.20046875 2.2775 29.17046875 1.9375 32.23046875 C8.2075 32.23046875 14.4775 32.23046875 20.9375 32.23046875 C20.9375 38.17046875 20.9375 44.11046875 20.9375 50.23046875 C14.6675 50.23046875 8.3975 50.23046875 1.9375 50.23046875 C1.94273682 51.89134521 1.94797363 53.55222168 1.95336914 55.26342773 C1.97141058 61.40030381 1.98292886 67.53717752 1.99243164 73.67407227 C1.99747383 76.33488356 2.00430736 78.99569207 2.01293945 81.65649414 C2.02501009 85.47152391 2.03072929 89.28651719 2.03515625 93.1015625 C2.04031754 94.29945908 2.04547882 95.49735565 2.05079651 96.73155212 C2.05087204 97.83261795 2.05094757 98.93368378 2.05102539 100.06811523 C2.053246 101.04296371 2.05546661 102.01781219 2.05775452 103.02220154 C1.9375 105.23046875 1.9375 105.23046875 0.9375 106.23046875 C-6.6525 106.23046875 -14.2425 106.23046875 -22.0625 106.23046875 C-22.0625 87.42046875 -22.0625 68.61046875 -22.0625 49.23046875 C-26.0225 49.23046875 -29.9825 49.23046875 -34.0625 49.23046875 C-34.0625 43.95046875 -34.0625 38.67046875 -34.0625 33.23046875 C-30.1025 33.23046875 -26.1425 33.23046875 -22.0625 33.23046875 C-22.10890625 32.02390625 -22.1553125 30.81734375 -22.203125 29.57421875 C-22.24067287 27.95966039 -22.27706977 26.34507497 -22.3125 24.73046875 C-22.34601562 23.93898437 -22.37953125 23.1475 -22.4140625 22.33203125 C-22.52013516 15.86159871 -21.09428357 10.59541535 -16.68505859 5.70166016 C-11.70991312 1.22938234 -6.54283713 -0.02636573 0 0 Z " transform="translate(604.0625,188.76953125)" style="fill: #1F3443;"/><path d="M0 0 C7.26 0 14.52 0 22 0 C22 3.3 22 6.6 22 10 C32.89 10 43.78 10 55 10 C56.20029908 12.40059817 56.11459743 13.89360649 56.09765625 16.5703125 C56.09282227 17.91416016 56.09282227 17.91416016 56.08789062 19.28515625 C56.07532227 20.69087891 56.07532227 20.69087891 56.0625 22.125 C56.05798828 23.06988281 56.05347656 24.01476562 56.04882812 24.98828125 C56.03702357 27.32558387 56.02055759 29.66276061 56 32 C55.49549316 32.23187012 54.99098633 32.46374023 54.47119141 32.70263672 C52.18699923 33.75554355 49.90599306 34.81518168 47.625 35.875 C46.43390625 36.42220703 46.43390625 36.42220703 45.21875 36.98046875 C44.07792969 37.51220703 44.07792969 37.51220703 42.9140625 38.0546875 C41.8614624 38.54171143 41.8614624 38.54171143 40.78759766 39.03857422 C38.82403992 39.98408273 38.82403992 39.98408273 37 42 C36.01 42 35.02 42 34 42 C34 37.71 34 33.42 34 29 C26.41 29 18.82 29 11 29 C11 29.33 11 29.66 11 30 C2.09 30 -6.82 30 -16 30 C-16 41.88 -16 53.76 -16 66 C-13.36 66 -10.72 66 -8 66 C-13.28033866 70.39708201 -19.03180012 73.63202312 -25 77 C-26.0415625 77.58910156 -27.083125 78.17820312 -28.15625 78.78515625 C-35.72901891 83 -35.72901891 83 -38 83 C-38.02312504 73.62964062 -38.04091591 64.25929099 -38.05181217 54.88890934 C-38.05704065 50.53831541 -38.06413765 46.18774093 -38.07543945 41.8371582 C-38.08626959 37.64209742 -38.0922771 33.44705541 -38.09487724 29.25198174 C-38.09673126 27.64793032 -38.10035144 26.04387997 -38.10573006 24.4398365 C-38.11294219 22.20083485 -38.11399087 19.9619117 -38.11352539 17.72290039 C-38.115746 16.44604874 -38.11796661 15.16919708 -38.12025452 13.85365295 C-38 11 -38 11 -37 10 C-34.26105915 9.91141354 -31.5474673 9.88476521 -28.80859375 9.90234375 C-27.57883568 9.90446617 -27.57883568 9.90446617 -26.32423401 9.90663147 C-23.69528618 9.91224711 -21.06642227 9.92480221 -18.4375 9.9375 C-16.65950643 9.94251299 -14.88151154 9.94707624 -13.10351562 9.95117188 C-8.73564455 9.96222161 -4.36783652 9.97949669 0 10 C0 6.7 0 3.4 0 0 Z " transform="translate(362,210)" style="fill: #1A2F3E;"/><path d="M0 0 C0.98484375 -0.00128906 1.9696875 -0.00257812 2.984375 -0.00390625 C4.02078125 -0.00003906 5.0571875 0.00382812 6.125 0.0078125 C7.67960938 0.00201172 7.67960938 0.00201172 9.265625 -0.00390625 C10.25046875 -0.00261719 11.2353125 -0.00132813 12.25 0 C13.16007813 0.00112793 14.07015625 0.00225586 15.0078125 0.00341797 C17.125 0.1328125 17.125 0.1328125 18.125 1.1328125 C18.22029612 4.14631488 18.25051904 7.13685356 18.23852539 10.15063477 C18.23867142 11.09687714 18.23881744 12.04311951 18.2389679 13.01803589 C18.23826836 16.16178642 18.23047409 19.30547851 18.22265625 22.44921875 C18.22079221 24.62255318 18.21936824 26.79588802 18.21836853 28.96922302 C18.21454221 34.70182445 18.20471097 40.43440073 18.19366455 46.16699219 C18.18165886 53.0385257 18.17704873 59.9100676 18.17121124 66.78160858 C18.16149927 77.23202741 18.1423435 87.68239099 18.125 98.1328125 C-3.985 98.1328125 -26.095 98.1328125 -48.875 98.1328125 C-48.875 80.1328125 -48.875 80.1328125 -47.875 79.1328125 C-44.84692956 78.9724569 -41.83914546 78.87320802 -38.80859375 78.81640625 C-37.89997086 78.79562515 -36.99134796 78.77484406 -36.05519104 78.75343323 C-33.14104054 78.68783578 -30.22679696 78.6290057 -27.3125 78.5703125 C-25.34178709 78.52713696 -23.37108374 78.48352299 -21.40039062 78.43945312 C-16.55869012 78.33214407 -11.71689563 78.23090575 -6.875 78.1328125 C-6.86469254 77.17037125 -6.85438507 76.20792999 -6.84376526 75.21632385 C-6.74619981 66.16614162 -6.64348217 57.11603073 -6.53566074 48.0659647 C-6.48038993 43.41273481 -6.42696342 38.75949869 -6.37768555 34.10620117 C-6.33010315 29.61931133 -6.27776283 25.13250038 -6.22205925 20.64570427 C-6.20160784 18.93003225 -6.18289947 17.21433857 -6.16592598 15.49862862 C-6.14194335 13.10390481 -6.11188088 10.70933148 -6.08032227 8.31469727 C-6.0745668 7.59828568 -6.06881134 6.88187408 -6.06288147 6.14375305 C-5.97602645 0.38290594 -5.68621254 0.00704736 0 0 Z " transform="translate(709.875,61.8671875)" style="fill: #1B3140;"/><path d="M0 0 C1.02802734 -0.01224609 2.05605469 -0.02449219 3.11523438 -0.03710938 C4.58766602 -0.04000977 4.58766602 -0.04000977 6.08984375 -0.04296875 C6.99468506 -0.04707764 7.89952637 -0.05118652 8.83178711 -0.05541992 C11.0625 0.1875 11.0625 0.1875 13.0625 2.1875 C13.26139816 5.1898537 13.33513848 8.10000098 13.32128906 11.10351562 C13.3247937 12.0271843 13.32829834 12.95085297 13.33190918 13.9025116 C13.34073676 16.9663334 13.33487371 20.0299257 13.328125 23.09375 C13.32947135 25.21602422 13.33141164 27.33829813 13.33392334 29.46057129 C13.336876 33.91270885 13.3325724 38.36476627 13.32324219 42.81689453 C13.31184761 48.53381987 13.31840632 54.25055745 13.33038712 59.96747589 C13.33760188 64.35110905 13.33531955 68.73469743 13.33013153 73.11833191 C13.32879397 75.22674074 13.33044644 77.3351536 13.33509064 79.44355774 C13.34014956 82.38631006 13.33245454 85.32875504 13.32128906 88.27148438 C13.32533752 89.14947189 13.32938599 90.02745941 13.33355713 90.93205261 C13.29102766 96.95897234 13.29102766 96.95897234 11.0625 99.1875 C8.83178711 99.43041992 8.83178711 99.43041992 6.08984375 99.41796875 C5.10822266 99.41603516 4.12660156 99.41410156 3.11523438 99.41210938 C2.08720703 99.39986328 1.05917969 99.38761719 0 99.375 C-1.03189453 99.37435547 -2.06378906 99.37371094 -3.12695312 99.37304688 C-10.79734003 99.32765997 -10.79734003 99.32765997 -11.9375 98.1875 C-12.03812747 95.17936514 -12.0736474 92.19414971 -12.06689453 89.18554688 C-12.06864685 88.2409108 -12.07039917 87.29627472 -12.07220459 86.32301331 C-12.0766248 83.1840738 -12.07368452 80.04519013 -12.0703125 76.90625 C-12.07098549 74.73531076 -12.07195547 72.5643716 -12.07321167 70.39343262 C-12.07468887 65.83698817 -12.07253337 61.28056328 -12.06787109 56.72412109 C-12.0621738 50.86923414 -12.06545268 45.01439302 -12.07144356 39.15950775 C-12.07504857 34.67469942 -12.07391086 30.18990204 -12.07131577 25.70509338 C-12.07064633 23.54561864 -12.0714755 21.38614291 -12.07379532 19.22666931 C-12.07632086 16.21423692 -12.07248264 13.20187987 -12.06689453 10.18945312 C-12.06891876 9.28759781 -12.07094299 8.38574249 -12.07302856 7.45655823 C-12.0403717 -1.99486256 -8.3509077 0.00521606 0 0 Z " transform="translate(195.9375,195.8125)" style="fill: #1F3544;"/><path d="M0 0 C23 0 23 0 24 1 C24.1006127 3.9776137 24.13614893 6.93207167 24.12939453 9.91015625 C24.13114685 10.84503876 24.13289917 11.77992126 24.13470459 12.74313354 C24.13912474 15.84960762 24.13618454 18.95602529 24.1328125 22.0625 C24.13348549 24.21101899 24.13445548 26.35953791 24.13571167 28.50805664 C24.13718886 33.01742272 24.13503339 37.52676903 24.13037109 42.03613281 C24.1246738 47.83048577 24.12795269 53.62479242 24.13394356 59.41914368 C24.13754859 63.85762891 24.13641085 68.29610307 24.13381577 72.73458862 C24.13314634 74.87173467 24.13397547 77.00888171 24.13629532 79.14602661 C24.1388209 82.12732626 24.13498259 85.1085498 24.12939453 88.08984375 C24.13141876 88.98234833 24.13344299 89.87485291 24.13552856 90.79440308 C24.11426232 96.88573768 24.11426232 96.88573768 23 98 C15.41 98 7.82 98 0 98 C0 65.66 0 33.32 0 0 Z " transform="translate(736,62)" style="fill: #1C3240;"/><path d="M0 0 C2.371875 0.04125 4.74375 0.0825 7.1875 0.125 C6.5275 7.385 5.8675 14.645 5.1875 22.125 C-2.1875 22.375 -2.1875 22.375 -4.44287109 22.42285156 C-8.70417843 22.6316853 -12.14338478 23.52176167 -16.09228516 25.16308594 C-16.98001617 25.52883728 -17.86774719 25.89458862 -18.78237915 26.27142334 C-19.45231903 26.55310364 -20.12225891 26.83478394 -20.8125 27.125 C-20.82280746 27.71159897 -20.83311493 28.29819794 -20.84373474 28.90257263 C-20.95157194 34.9853787 -21.06618756 41.06802974 -21.18481445 47.15063477 C-21.22823665 49.42338836 -21.26990616 51.69617613 -21.30981445 53.96899414 C-21.36734119 57.22813232 -21.43108552 60.48709731 -21.49609375 63.74609375 C-21.52116249 65.28045326 -21.52116249 65.28045326 -21.54673767 66.84580994 C-21.56668289 67.78670975 -21.58662811 68.72760956 -21.60717773 69.69702148 C-21.62272202 70.52975082 -21.6382663 71.36248016 -21.65428162 72.22044373 C-21.8125 74.125 -21.8125 74.125 -22.8125 75.125 C-24.43507544 75.2241657 -26.06189831 75.25579777 -27.6875 75.2578125 C-28.67234375 75.25910156 -29.6571875 75.26039063 -30.671875 75.26171875 C-31.70828125 75.25785156 -32.7446875 75.25398438 -33.8125 75.25 C-35.36710938 75.25580078 -35.36710938 75.25580078 -36.953125 75.26171875 C-37.93796875 75.26042969 -38.9228125 75.25914062 -39.9375 75.2578125 C-40.84757813 75.25668457 -41.75765625 75.25555664 -42.6953125 75.25439453 C-44.8125 75.125 -44.8125 75.125 -45.8125 74.125 C-45.9121392 71.89112794 -45.94049795 69.65406141 -45.94189453 67.41796875 C-45.94364685 66.71717194 -45.94539917 66.01637512 -45.94720459 65.29434204 C-45.95162266 62.96703651 -45.94868529 60.63980636 -45.9453125 58.3125 C-45.94598555 56.70206691 -45.94695559 55.09163391 -45.94821167 53.48120117 C-45.94968858 50.10171545 -45.94753431 46.7222561 -45.94287109 43.34277344 C-45.9371738 39.00123495 -45.94045285 34.65975827 -45.94644356 30.31822205 C-45.95004936 26.99149099 -45.9489105 23.6647747 -45.94631577 20.33804321 C-45.94564655 18.73678582 -45.94647474 17.1355271 -45.94879532 15.53427124 C-45.95132216 13.30015489 -45.94748085 11.06614 -45.94189453 8.83203125 C-45.94109894 7.5581958 -45.94030334 6.28436035 -45.93948364 4.97192383 C-45.8125 2.125 -45.8125 2.125 -44.8125 1.125 C-42.00362437 0.91803022 -39.24962434 0.80054472 -36.4375 0.75 C-35.26574219 0.69392578 -35.26574219 0.69392578 -34.0703125 0.63671875 C-31.87683763 0.6029152 -29.95194535 0.63516452 -27.8125 1.125 C-25.59394997 3.74692276 -24.89337516 5.88237453 -23.8125 9.125 C-23.07644531 8.64289063 -22.34039063 8.16078125 -21.58203125 7.6640625 C-20.60621094 7.03242188 -19.63039063 6.40078125 -18.625 5.75 C-17.66207031 5.12351563 -16.69914063 4.49703125 -15.70703125 3.8515625 C-10.3249811 0.6412168 -6.22863574 -0.15375988 0 0 Z " transform="translate(751.8125,219.875)" style="fill: #1F3443;"/><path d="M0 0 C15.84 0 31.68 0 48 0 C48.96925931 11.63111167 49 23.3285724 49 35 C32.83 35 16.66 35 0 35 C0 23.45 0 11.9 0 0 Z " transform="translate(590,106)" style="fill: #FBFCFD;"/><path d="M0 0 C15.84 0 31.68 0 48 0 C48 11.22 48 22.44 48 34 C32.16 34 16.32 34 0 34 C0 22.78 0 11.56 0 0 Z " transform="translate(347,241)" style="fill: #FDFDFE;"/><path d="M0 0 C1.02996094 -0.00128906 2.05992187 -0.00257812 3.12109375 -0.00390625 C4.74724609 0.00189453 4.74724609 0.00189453 6.40625 0.0078125 C7.49035156 0.00394531 8.57445312 0.00007813 9.69140625 -0.00390625 C10.72136719 -0.00261719 11.75132812 -0.00132813 12.8125 0 C14.24045898 0.00169189 14.24045898 0.00169189 15.69726562 0.00341797 C17.90625 0.1328125 17.90625 0.1328125 18.90625 1.1328125 C18.99971915 2.79019693 19.02369977 4.45155894 19.01977539 6.11157227 C19.01969986 7.17259659 19.01962433 8.23362091 19.01954651 9.32679749 C19.01438522 10.4809465 19.00922394 11.63509552 19.00390625 12.82421875 C19.0024913 13.99919418 19.00107635 15.17416962 18.99961853 16.38475037 C18.99399992 20.15496314 18.98144426 23.92511754 18.96875 27.6953125 C18.9637374 30.24413977 18.95917408 32.79296797 18.95507812 35.34179688 C18.94487331 41.60550959 18.92530152 47.86909534 18.90625 54.1328125 C31.77625 54.1328125 44.64625 54.1328125 57.90625 54.1328125 C57.89464844 50.31847656 57.88304687 46.50414062 57.87109375 42.57421875 C57.86330458 38.8973804 57.85722702 35.22054296 57.85131836 31.54370117 C57.8462763 28.97989493 57.83944286 26.41609159 57.83081055 23.85229492 C57.81873936 20.17626229 57.81302058 16.50026752 57.80859375 12.82421875 C57.80343246 11.67006973 57.79827118 10.51592072 57.79295349 9.32679749 C57.79287796 8.26577316 57.79280243 7.20474884 57.79272461 6.11157227 C57.790504 5.17225357 57.78828339 4.23293488 57.78599548 3.26515198 C57.90625 1.1328125 57.90625 1.1328125 58.90625 0.1328125 C61.79231016 0.03224559 64.65447575 -0.00334125 67.54101562 0.00341797 C68.44663742 0.00166565 69.35225922 -0.00008667 70.2853241 -0.00189209 C73.29440193 -0.00631204 76.30342152 -0.00337211 79.3125 0 C81.39375825 -0.000673 83.47501643 -0.00164299 85.55627441 -0.00289917 C89.92440538 -0.00437634 94.29251593 -0.00222098 98.66064453 0.00244141 C104.27339553 0.0081387 109.88609872 0.0048598 115.49884796 -0.00113106 C119.79836389 -0.00473616 124.09786838 -0.00359832 128.39738464 -0.00100327 C130.46754461 -0.00033386 132.5377056 -0.0011629 134.60786438 -0.00348282 C137.49576586 -0.00600852 140.38358878 -0.00216992 143.27148438 0.00341797 C144.13593674 0.00139374 145.0003891 -0.00063049 145.89103699 -0.00271606 C151.79198763 0.01855013 151.79198763 0.01855013 152.90625 1.1328125 C152.99310603 2.69453995 153.01327219 4.26010594 153.00390625 5.82421875 C153.00068359 6.76845703 152.99746094 7.71269531 152.99414062 8.68554688 C152.98576172 9.67876953 152.97738281 10.67199219 152.96875 11.6953125 C152.96423828 12.69240234 152.95972656 13.68949219 152.95507812 14.71679688 C152.94325007 17.18886099 152.92676849 19.66080768 152.90625 22.1328125 C152.24238281 22.45894531 151.57851563 22.78507812 150.89453125 23.12109375 C145.47796336 25.77331115 145.47796336 25.77331115 140.28125 28.8203125 C136.9398548 30.666873 133.6304293 31.31223062 129.90625 32.1328125 C129.90625 28.1728125 129.90625 24.2128125 129.90625 20.1328125 C127.89337891 20.32423828 127.89337891 20.32423828 125.83984375 20.51953125 C113.55949113 21.32716521 106.48389335 20.04964418 97.078125 12.046875 C95.19948701 10.35610081 93.40080661 8.62908831 91.609375 6.84375 C82.02037622 -1.66036206 74.26772195 2.1328125 59.90625 2.1328125 C59.57625 19.6228125 59.24625 37.1128125 58.90625 55.1328125 C45.37625 55.1328125 31.84625 55.1328125 17.90625 55.1328125 C17.41125 28.8978125 17.41125 28.8978125 16.90625 2.1328125 C9.97625 2.1328125 3.04625 2.1328125 -4.09375 2.1328125 C-4.42375 19.2928125 -4.75375 36.4528125 -5.09375 54.1328125 C-5.42375 54.1328125 -5.75375 54.1328125 -6.09375 54.1328125 C-6.11901648 46.60311598 -6.13658141 39.0734303 -6.14868164 31.54370117 C-6.1537237 28.97989493 -6.16055714 26.41609159 -6.16918945 23.85229492 C-6.18126064 20.17626229 -6.18697942 16.50026752 -6.19140625 12.82421875 C-6.19656754 11.67006973 -6.20172882 10.51592072 -6.20704651 9.32679749 C-6.20712204 8.26577316 -6.20719757 7.20474884 -6.20727539 6.11157227 C-6.209496 5.17225357 -6.21171661 4.23293488 -6.21400452 3.26515198 C-5.98094183 -0.86748921 -3.57601999 0.00423699 0 0 Z " transform="translate(508.09375,85.8671875)" style="fill: #DC5B64;"/><path d="M0 0 C7.26 0 14.52 0 22 0 C22 3.3 22 6.6 22 10 C32.89 10 43.78 10 55 10 C56.20029908 12.40059817 56.11459743 13.89360649 56.09765625 16.5703125 C56.09282227 17.91416016 56.09282227 17.91416016 56.08789062 19.28515625 C56.07532227 20.69087891 56.07532227 20.69087891 56.0625 22.125 C56.05798828 23.06988281 56.05347656 24.01476562 56.04882812 24.98828125 C56.03702357 27.32558387 56.02055759 29.66276061 56 32 C55.49549316 32.23187012 54.99098633 32.46374023 54.47119141 32.70263672 C52.18699923 33.75554355 49.90599306 34.81518168 47.625 35.875 C46.43390625 36.42220703 46.43390625 36.42220703 45.21875 36.98046875 C44.07792969 37.51220703 44.07792969 37.51220703 42.9140625 38.0546875 C41.8614624 38.54171143 41.8614624 38.54171143 40.78759766 39.03857422 C38.82403992 39.98408273 38.82403992 39.98408273 37 42 C36.01 42 35.02 42 34 42 C34 37.71 34 33.42 34 29 C32.49308594 29.03480469 30.98617187 29.06960937 29.43359375 29.10546875 C27.43490703 29.13361927 25.43620819 29.16091807 23.4375 29.1875 C22.44685547 29.21263672 21.45621094 29.23777344 20.43554688 29.26367188 C12.27474311 29.34500879 7.02034807 28.01695673 0.625 22.6875 C-3.20471919 19.57626513 -7.16320618 16.87252948 -11.34765625 14.26171875 C-12.16556641 13.63716797 -12.16556641 13.63716797 -13 13 C-13 12.34 -13 11.68 -13 11 C-20.92 11 -28.84 11 -37 11 C-37 10.67 -37 10.34 -37 10 C-24.79 10 -12.58 10 0 10 C0 6.7 0 3.4 0 0 Z " transform="translate(362,210)" style="fill: #F14852;"/><path d="M0 0 C1.96446905 1.6344795 2.92317791 2.46429394 3.29296875 5.04296875 C3.1953125 7.02864583 3.09765625 9.01432292 3 11 C3.66 11 4.32 11 5 11 C5.67189656 13.91555115 6.33769308 16.83226951 7 19.75 C7.19078125 20.575 7.3815625 21.4 7.578125 22.25 C7.84882813 23.44882813 7.84882813 23.44882813 8.125 24.671875 C8.29257813 25.4050293 8.46015625 26.13818359 8.6328125 26.89355469 C9 29 9 29 9 33 C9.66 33 10.32 33 11 33 C11 34.65 11 36.3 11 38 C4.4 38 -2.2 38 -9 38 C-9 31.25494277 -9 31.25494277 -7.79296875 27.4609375 C-7.53725098 26.63819336 -7.2815332 25.81544922 -7.01806641 24.96777344 C-6.74397949 24.1121582 -6.46989258 23.25654297 -6.1875 22.375 C-5.6346008 20.5970114 -5.08381254 18.81836496 -4.53515625 17.0390625 C-4.26977051 16.17958008 -4.00438477 15.32009766 -3.73095703 14.43457031 C-2.30033587 9.66965574 -1.12288079 4.8461171 0 0 Z " transform="translate(136,217)" style="fill: #EBECEF;"/><path d="M0 0 C7.26 0 14.52 0 22 0 C22 3.3 22 6.6 22 10 C32.89 10 43.78 10 55 10 C55 10.33 55 10.66 55 11 C24.64 11 -5.72 11 -37 11 C-37 10.67 -37 10.34 -37 10 C-24.79 10 -12.58 10 0 10 C0 6.7 0 3.4 0 0 Z " transform="translate(362,210)" style="fill: #F3D0CE;"/><path d="M0 0 C2.85140231 1.18763848 4.80783473 2.80783473 7 5 C7.14115161 7.67058851 7.04247107 10.32432238 7 13 C3.54173658 13.05789006 0.08359707 13.09355821 -3.375 13.125 C-4.35984375 13.14175781 -5.3446875 13.15851563 -6.359375 13.17578125 C-7.30039063 13.18222656 -8.24140625 13.18867187 -9.2109375 13.1953125 C-10.51490479 13.21102295 -10.51490479 13.21102295 -11.84521484 13.22705078 C-14 13 -14 13 -16 11 C-16.5412844 5.31651376 -16.5412844 5.31651376 -16 3 C-11.67452717 -1.50910139 -5.79250826 -0.72696365 0 0 Z " transform="translate(228,105)" style="fill: #F4F5F6;"/><path d="M0 0 C2.75329021 1.79562405 4.52627461 3.05254922 6 6 C6.55358359 10.05961302 6.12772011 11.77751981 4.0625 15.375 C2.31155139 17.28649404 1.32333763 17.93034934 -1.23046875 18.48046875 C-7.13328564 18.68268597 -7.13328564 18.68268597 -9.7109375 16.65234375 C-12.50202939 13.07467142 -12.45040364 9.35390184 -12 5 C-8.57935012 0.12816532 -5.85570965 -0.94109619 0 0 Z " transform="translate(230,64)" style="fill: #283B49;"/><path d="M0 0 C1.76171875 1.10546875 1.76171875 1.10546875 2.76171875 3.10546875 C3.0203201 7.15688994 3.06613429 8.64884544 0.76171875 12.10546875 C-1.39306641 12.44604492 -1.39306641 12.44604492 -4.02734375 12.3984375 C-4.96835937 12.38876953 -5.909375 12.37910156 -6.87890625 12.36914062 C-7.86375 12.34400391 -8.84859375 12.31886719 -9.86328125 12.29296875 C-11.35214844 12.27266602 -11.35214844 12.27266602 -12.87109375 12.25195312 C-15.32705286 12.21653064 -17.78273407 12.16272244 -20.23828125 12.10546875 C-19.90828125 8.80546875 -19.57828125 5.50546875 -19.23828125 2.10546875 C-13.20508353 -1.04228658 -6.57054788 -2.62592577 0 0 Z " transform="translate(675.23828125,238.89453125)" style="fill: #F5F7F9;"/><path d="M0 0 C0.86931152 0.01047363 1.73862305 0.02094727 2.63427734 0.03173828 C3.57529297 0.03818359 4.51630859 0.04462891 5.48583984 0.05126953 C6.47068359 0.06802734 7.45552734 0.08478516 8.47021484 0.10205078 C9.46279297 0.11107422 10.45537109 0.12009766 11.47802734 0.12939453 C13.93399618 0.15300962 16.38948653 0.18594279 18.84521484 0.22705078 C18.84521484 2.86705078 18.84521484 5.50705078 18.84521484 8.22705078 C17.57566185 8.87539732 16.30451778 9.52062893 15.03271484 10.16455078 C14.32501953 10.52419922 13.61732422 10.88384766 12.88818359 11.25439453 C8.23801564 13.46833683 3.91965486 13.88852341 -1.15478516 13.22705078 C-3.21728516 11.66455078 -3.21728516 11.66455078 -4.15478516 9.22705078 C-4.46728516 5.60205078 -4.46728516 5.60205078 -4.15478516 2.22705078 C-2.15478516 0.22705078 -2.15478516 0.22705078 0 0 Z " transform="translate(522.15478515625,263.77294921875)" style="fill: #F6F7F9;"/><path d="M0 0 C1.62098279 4.97692372 1.01956117 10.20636889 0.9375 15.37109375 C0.99018568 18.43015615 1.27089999 21.04372732 2 24 C0.515 23.505 0.515 23.505 -1 23 C-3.05088424 25.05088424 -2.23335305 29.3300459 -2.28125 32.15625 C-2.29965942 32.97371704 -2.31806885 33.79118408 -2.33703613 34.63342285 C-2.39597277 37.25553991 -2.44871437 39.87772277 -2.5 42.5 C-2.56743605 45.9480619 -2.64110424 49.39590462 -2.71875 52.84375 C-2.73232544 53.64478149 -2.74590088 54.44581299 -2.7598877 55.27111816 C-2.88719819 60.88719819 -2.88719819 60.88719819 -4 62 C-6.92194665 62.09525367 -9.82020329 62.12552736 -12.74243164 62.11352539 C-14.11790413 62.11374443 -14.11790413 62.11374443 -15.52116394 62.1139679 C-18.56751836 62.1132684 -21.61381245 62.10547428 -24.66015625 62.09765625 C-26.76622993 62.0957922 -28.87230403 62.09436824 -30.9783783 62.09336853 C-36.53342883 62.08954231 -42.08845341 62.07971114 -47.64349365 62.06866455 C-53.3072474 62.05845267 -58.97100533 62.05387139 -64.63476562 62.04882812 C-75.75652185 62.03808896 -86.87825877 62.0210113 -98 62 C-98 61.67 -98 61.34 -98 61 C-51.965 60.505 -51.965 60.505 -5 60 C-4.67 42.84 -4.34 25.68 -4 8 C-3.67 8 -3.34 8 -3 8 C-2.505 12.455 -2.505 12.455 -2 17 C-1.93941406 16.02417969 -1.87882812 15.04835937 -1.81640625 14.04296875 C-1.69072266 12.13451172 -1.69072266 12.13451172 -1.5625 10.1875 C-1.44068359 8.29064453 -1.44068359 8.29064453 -1.31640625 6.35546875 C-1 3 -1 3 0 0 Z " transform="translate(422,234)" style="fill: #DDF5F9;"/><path d="M0 0 C8.8488239 -0.02312589 17.69763747 -0.04091634 26.54648495 -0.05181217 C30.65494285 -0.05704046 34.76338014 -0.06413713 38.87182617 -0.07543945 C42.83346828 -0.08627025 46.79509052 -0.09227724 50.75674629 -0.09487724 C52.27148311 -0.09673114 53.78621879 -0.1003511 55.30094719 -0.10573006 C57.41541813 -0.11294307 59.52980594 -0.11399083 61.64428711 -0.11352539 C62.85007919 -0.115746 64.05587128 -0.11796661 65.29820251 -0.12025452 C68 0 68 0 69 1 C69.08669432 2.4887186 69.10703494 3.981445 69.09765625 5.47265625 C69.09282227 6.82133789 69.09282227 6.82133789 69.08789062 8.19726562 C69.07532227 9.61555664 69.07532227 9.61555664 69.0625 11.0625 C69.05798828 12.01189453 69.05347656 12.96128906 69.04882812 13.93945312 C69.0370011 16.29303065 69.02052025 18.64648477 69 21 C67.03533587 22.06775224 65.03144641 23.06553465 63 24 C62.34 23.67 61.68 23.34 61 23 C61.495 21.515 61.495 21.515 62 20 C63.98 20 65.96 20 68 20 C68 14.06 68 8.12 68 2 C47.21 2 26.42 2 5 2 C5 2.66 5 3.32 5 4 C2.525 3.01 2.525 3.01 0 2 C0 1.34 0 0.68 0 0 Z " transform="translate(349,221)" style="fill: #DF6A6C;"/><path d="M0 0 C6.93 0 13.86 0 21 0 C21 3.3 21 6.6 21 10 C19.35 10 17.7 10 16 10 C15.67 8.68 15.34 7.36 15 6 C12.03 6 9.06 6 6 6 C6 7.32 6 8.64 6 10 C4.02 10 2.04 10 0 10 C0 6.7 0 3.4 0 0 Z " transform="translate(606,75)" style="fill: #E9686B;"/><path d="M0 0 C0.33 0 0.66 0 1 0 C1 3.3 1 6.6 1 10 C2.98 10 4.96 10 7 10 C7 8.68 7 7.36 7 6 C9.97 6 12.94 6 16 6 C16.495 7.485 16.495 7.485 17 9 C19.475 9.495 19.475 9.495 22 10 C22 6.7 22 3.4 22 0 C22.33 0 22.66 0 23 0 C23 3.3 23 6.6 23 10 C33.56 10 44.12 10 55 10 C55 10.33 55 10.66 55 11 C24.64 11 -5.72 11 -37 11 C-37 10.67 -37 10.34 -37 10 C-32.70879273 9.80083957 -28.41703701 9.61781898 -24.125 9.4375 C-22.92101562 9.38142578 -21.71703125 9.32535156 -20.4765625 9.26757812 C-13.51760841 8.98392511 -6.91021467 9.11491558 0 10 C0 6.7 0 3.4 0 0 Z " transform="translate(605,75)" style="fill: #FAE8E8;"/><path d="M0 0 C6.93 0 13.86 0 21 0 C21 2.97 21 5.94 21 9 C19.35 9 17.7 9 16 9 C16 7.68 16 6.36 16 5 C12.37 5 8.74 5 5 5 C5 6.32 5 7.64 5 9 C3.35 9 1.7 9 0 9 C0 6.03 0 3.06 0 0 Z " transform="translate(363,210)" style="fill: #E46365;"/><path d="M0 0 C22.77 0 45.54 0 69 0 C69 6.93 69 13.86 69 21 C61 25 61 25 59 25 C59 24.01 59 23.02 59 22 C60.32 22 61.64 22 63 22 C63 21.34 63 20.68 63 20 C64.32 19.67 65.64 19.34 67 19 C67.33 13.06 67.66 7.12 68 1 C47.87 1 27.74 1 7 1 C7.99 2.98 8.98 4.96 10 7 C5.10438685 5.46137872 4.03476116 4.03476116 0 0 Z " transform="translate(592,87)" style="fill: #DA5356;"/><path d="M0 0 C0.66 0.33 1.32 0.66 2 1 C0.6875 2.5 0.6875 2.5 -1 4 C-1.99 4 -2.98 4 -4 4 C-4.33 4.99 -4.66 5.98 -5 7 C-5.33 7.33 -5.66 7.66 -6 8 C22.05 8 50.1 8 79 8 C79 8.33 79 8.66 79 9 C48.31 9 17.62 9 -14 9 C-11.0755552 6.8066664 -8.48719177 5.08566036 -5.3125 3.375 C-2.47141761 1.93997724 -2.47141761 1.93997724 0 0 Z " transform="translate(338,285)" style="fill: #369FAC;"/><path d="M0 0 C1.62098279 4.97692372 1.01956117 10.20636889 0.9375 15.37109375 C0.99018568 18.43015615 1.27089999 21.04372732 2 24 C1.01 23.67 0.02 23.34 -1 23 C-3.03123075 25.03123075 -2.25669618 29.17768866 -2.31640625 31.97265625 C-2.33718735 32.77029892 -2.35796844 33.56794159 -2.37937927 34.38975525 C-2.44496158 36.94724611 -2.50379967 39.5048428 -2.5625 42.0625 C-2.60567699 43.79232882 -2.64929101 45.52214679 -2.69335938 47.25195312 C-2.80065172 51.5011926 -2.90189426 55.7505389 -3 60 C-3.33 60 -3.66 60 -4 60 C-4 42.84 -4 25.68 -4 8 C-3.67 8 -3.34 8 -3 8 C-2.67 10.97 -2.34 13.94 -2 17 C-1.93941406 16.02417969 -1.87882812 15.04835937 -1.81640625 14.04296875 C-1.73261719 12.77066406 -1.64882813 11.49835938 -1.5625 10.1875 C-1.48128906 8.92292969 -1.40007812 7.65835938 -1.31640625 6.35546875 C-1 3 -1 3 0 0 Z " transform="translate(422,234)" style="fill: #CAECF2;"/><path d="M0 0 C1.40027356 36.87704558 1.40027356 36.87704558 0 52 C-1.32 51.67 -2.64 51.34 -4 51 C-3.01 51 -2.02 51 -1 51 C-1.08378906 49.80890625 -1.16757812 48.6178125 -1.25390625 47.390625 C-2.20369962 32.21064743 -1.73072284 17.18279668 -1 2 C-3.31 2.66 -5.62 3.32 -8 4 C-5.29881977 1.17603885 -4.05589853 0 0 0 Z " transform="translate(661,108)" style="fill: #3D98A7;"/><path d="M0 0 C0 3.51716303 -0.82445585 4.37121748 -3 7 C-2.01 7.33 -1.02 7.66 0 8 C-12.375 8.495 -12.375 8.495 -25 9 C-21.00524781 6.33683187 -17.31434383 6.19329318 -12.6171875 5.5625 C-11.32167969 5.2840625 -11.32167969 5.2840625 -10 5 C-9.67 4.34 -9.34 3.68 -9 3 C-6.66752239 2.66073053 -4.33414529 2.32759934 -2 2 C-1.34 1.34 -0.68 0.68 0 0 Z " transform="translate(233,79)" style="fill: #D0D5DA;"/><path d="M0 0 C0 2.70165032 -1.14905916 3.14905916 -3 5 C-3 5.66 -3 6.32 -3 7 C-1.68 7.66 -0.36 8.32 1 9 C-4.28 9 -9.56 9 -15 9 C-15 8.34 -15 7.68 -15 7 C-14.34 6.773125 -13.68 6.54625 -13 6.3125 C-9.66924588 4.85529507 -6.79508436 3.02504625 -3.76953125 1.0234375 C-2 0 -2 0 0 0 Z " transform="translate(583,151)" style="fill: #3093A3;"/><path d="M0 0 C0.33 0 0.66 0 1 0 C1.04898437 0.99902344 1.09796875 1.99804688 1.1484375 3.02734375 C1.22320312 4.31769531 1.29796875 5.60804688 1.375 6.9375 C1.44460938 8.22527344 1.51421875 9.51304687 1.5859375 10.83984375 C1.72257812 11.88269531 1.85921875 12.92554688 2 14 C2.66 14.33 3.32 14.66 4 15 C3.88658363 17.31309705 3.75896193 19.62550185 3.625 21.9375 C3.52058594 23.86916016 3.52058594 23.86916016 3.4140625 25.83984375 C3.27742188 26.88269531 3.14078125 27.92554688 3 29 C2.34 29.33 1.68 29.66 1 30 C-0.3302664 20.02300197 -0.09502917 10.04385176 0 0 Z " transform="translate(418,222)" style="fill: #FBEBEC;"/><path d="M0 0 C4.62 0 9.24 0 14 0 C14 0.66 14 1.32 14 2 C10.7 2 7.4 2 4 2 C3.67 3.65 3.34 5.3 3 7 C2.01 7 1.02 7 0 7 C0 4.69 0 2.38 0 0 Z " transform="translate(364,211)" style="fill: #EE4950;"/><path d="M0 0 C0.66 0.33 1.32 0.66 2 1 C0 3 0 3 -3 3 C-3 3.66 -3 4.32 -3 5 C-5.90600261 6.25664978 -7.79604584 7 -11 7 C-11 14.26 -11 21.52 -11 29 C-11.33 29 -11.66 29 -12 29 C-12 21.08 -12 13.16 -12 5 C-8.37 3.68 -4.74 2.36 -1 1 C-0.67 0.67 -0.34 0.34 0 0 Z " transform="translate(651,112)" style="fill: #5096A2;"/><path d="M0 0 C2.97 0 5.94 0 9 0 C9 1.65 9 3.3 9 5 C6.03 5 3.06 5 0 5 C0 3.35 0 1.7 0 0 Z " transform="translate(369,215)" style="fill: #FFEFEB;"/><path d="M0 0 C1.65 0 3.3 0 5 0 C5 6.93 5 13.86 5 21 C-3 25 -3 25 -5 25 C-5 24.01 -5 23.02 -5 22 C-3.68 22 -2.36 22 -1 22 C-1 21.34 -1 20.68 -1 20 C0.32 19.67 1.64 19.34 3 19 C3.495 10.09 3.495 10.09 4 1 C2.68 0.67 1.36 0.34 0 0 Z " transform="translate(656,87)" style="fill: #D45A5E;"/><path d="M0 0 C1.62098279 4.97692372 1.01956117 10.20636889 0.9375 15.37109375 C0.99018568 18.43015615 1.27089999 21.04372732 2 24 C1.01 23.67 0.02 23.34 -1 23 C-1.66 23.33 -2.32 23.66 -3 24 C-3.04254356 22.00045254 -3.04080783 19.99958364 -3 18 C-2.67 17.67 -2.34 17.34 -2 17 C-1.78933632 14.71195833 -1.63135159 12.41896178 -1.5 10.125 C-1.10918114 3.32754342 -1.10918114 3.32754342 0 0 Z " transform="translate(422,234)" style="fill: #D2D6DC;"/><path d="M0 0 C0.66 0.33 1.32 0.66 2 1 C0.6875 2.5 0.6875 2.5 -1 4 C-1.99 4 -2.98 4 -4 4 C-4.33 4.99 -4.66 5.98 -5 7 C-5.33 7.33 -5.66 7.66 -6 8 C-4.68 8.33 -3.36 8.66 -2 9 C-5.96 9 -9.92 9 -14 9 C-11.0755552 6.8066664 -8.48719177 5.08566036 -5.3125 3.375 C-2.47141761 1.93997724 -2.47141761 1.93997724 0 0 Z " transform="translate(338,285)" style="fill: #308999;"/><path d="M0 0 C0.33 0 0.66 0 1 0 C1 6.6 1 13.2 1 20 C-0.98 20.99 -2.96 21.98 -5 23 C-5.66 22.67 -6.32 22.34 -7 22 C-6.67 21.01 -6.34 20.02 -6 19 C-4.02 19 -2.04 19 0 19 C0 12.73 0 6.46 0 0 Z " transform="translate(417,222)" style="fill: #DB6265;"/><path d="M0 0 C2.97 0 5.94 0 9 0 C9 1.32 9 2.64 9 4 C6.03 4 3.06 4 0 4 C0 2.68 0 1.36 0 0 Z " transform="translate(612,81)" style="fill: #FFF8F5;"/><path d="M0 0 C-0.85464844 0.40992188 -1.70929687 0.81984375 -2.58984375 1.2421875 C-3.69457031 1.78101563 -4.79929687 2.31984375 -5.9375 2.875 C-7.03964844 3.40867188 -8.14179687 3.94234375 -9.27734375 4.4921875 C-12.09404511 5.71659845 -12.09404511 5.71659845 -13 8 C-14.32 7.34 -15.64 6.68 -17 6 C-15.39805929 5.01719585 -13.79336258 4.03888283 -12.1875 3.0625 C-11.29417969 2.51722656 -10.40085937 1.97195312 -9.48046875 1.41015625 C-5.86405592 -0.64578868 -3.93724498 -1.22190362 0 0 Z " transform="translate(748,221)" style="fill: #606C77;"/><path d="M0 0 C1.98 0 3.96 0 6 0 C5.34 1.98 4.68 3.96 4 6 C1 6 1 6 0 5 C-0.04063832 3.33382885 -0.042721 1.66611905 0 0 Z " transform="translate(447,241)" style="fill: #F1F2F5;"/><path d="M0 0 C0.66 0.33 1.32 0.66 2 1 C0.35 2.65 -1.3 4.3 -3 6 C-3.99 5.67 -4.98 5.34 -6 5 C-6 5.66 -6 6.32 -6 7 C-7.32 6.67 -8.64 6.34 -10 6 C-8.3811004 4.96951963 -6.75467511 3.95085322 -5.125 2.9375 C-4.22007812 2.36902344 -3.31515625 1.80054688 -2.3828125 1.21484375 C-1.20332031 0.61349609 -1.20332031 0.61349609 0 0 Z " transform="translate(354,276)" style="fill: #2E8C9B;"/><path d="M0 0 C3.3125 0.125 3.3125 0.125 7 1 C8.9375 4.0625 8.9375 4.0625 10 7 C5.56541027 5.6062718 3.12621626 3.39417765 0 0 Z " transform="translate(592,87)" style="fill: #B34E59;"/><path d="M0 0 C2.31 0 4.62 0 7 0 C6.67 0.99 6.34 1.98 6 3 C3.69 3 1.38 3 -1 3 C-0.67 2.01 -0.34 1.02 0 0 Z " transform="translate(370,217)" style="fill: #FFFBFA;"/><path d="M0 0 C0.33 0 0.66 0 1 0 C1 2.97 1 5.94 1 9 C2.98 9.495 2.98 9.495 5 10 C3 12 3 12 0 12 C0 8.04 0 4.08 0 0 Z " transform="translate(396,240)" style="fill: #DB5960;"/><path d="M0 0 C2.64 0 5.28 0 8 0 C8 0.66 8 1.32 8 2 C5.69 2.66 3.38 3.32 1 4 C0.67 2.68 0.34 1.36 0 0 Z " transform="translate(590,141)" style="fill: #284957;"/><path d="M0 0 C4.43090471 1.20842856 6.98112756 2.51668565 10 6 C6.62972148 6 5.93297304 5.50175992 3.3125 3.5625 C2.37857422 2.88380859 2.37857422 2.88380859 1.42578125 2.19140625 C0.95527344 1.79824219 0.48476563 1.40507812 0 1 C0 0.67 0 0.34 0 0 Z " transform="translate(354,225)" style="fill: #B64E59;"/><path d="M0 0 C1.32 0.33 2.64 0.66 4 1 C-0.95 3.475 -0.95 3.475 -6 6 C-5.34 4.68 -4.68 3.36 -4 2 C-2.68 2 -1.36 2 0 2 C0 1.34 0 0.68 0 0 Z " transform="translate(584,147)" style="fill: #103C4C;"/><path d="M0 0 C1.98 0 3.96 0 6 0 C-1.5 5 -1.5 5 -4 5 C-4 4.01 -4 3.02 -4 2 C-2.68 2 -1.36 2 0 2 C0 1.34 0 0.68 0 0 Z " transform="translate(655,107)" style="fill: #BC6E74;"/><path d="M0 0 C2.31 0 4.62 0 7 0 C4.37801226 2.15377564 2.35595828 3.40072174 -1 4 C-0.67 2.68 -0.34 1.36 0 0 Z " transform="translate(411,241)" style="fill: #C6666D;"/><path d="M0 0 C1.5625 1.25 1.5625 1.25 3 3 C2.6875 5.1875 2.6875 5.1875 2 7 C1.01 7 0.02 7 -1 7 C-0.67 4.69 -0.34 2.38 0 0 Z " transform="translate(136,217)" style="fill: #CACFD6;"/><path d="M0 0 C2.2477975 2.05233685 3.0022242 3.00667261 4 6 C2.68 6.33 1.36 6.66 0 7 C0 4.69 0 2.38 0 0 Z " transform="translate(364,211)" style="fill: #E84F56;"/><path d="M0 0 C0.66 0.33 1.32 0.66 2 1 C0.8125 3 0.8125 3 -1 5 C-3.6875 5.25 -3.6875 5.25 -6 5 C-5.195625 4.360625 -4.39125 3.72125 -3.5625 3.0625 C-1.7249496 1.59396498 -1.7249496 1.59396498 0 0 Z " transform="translate(589,146)" style="fill: #2C8FA0;"/></svg>